# xmcd
#
# Track frame offsets: 
#        150
#        13123
#        26115
#        37905
#        49322
#        60775
#        73709
#        85704
#        98468
#        111627
#        127138
#        138039
#        151576
#        162430
#        175270
#        187426
#        201112
#        213772
#        225575
#        238355
#        252396
#        262741
#        273487
#        285274
#
# Disc length: 3984 seconds
#
# Revision: 1
# Processed by: cddbd v1.5.2PL0 Copyright (c) Steve Scherf et al.
# Submitted via: ExactAudioCopy v0.99pb4
#
DISCID=4f0f8e18
DTITLE=The Roomates - The Classic Sound Of The Roomates
DYEAR=2004
DGENRE=Pop
TTITLE0=On A Night Like This
TTITLE1=Oh Rose Marie
TTITLE2=There압 No Moon Out Tonight
TTITLE3=Tell me
TTITLE4=My Own True Love
TTITLE5=He압 Gotta Go Now
TTITLE6=My Heart Stood Still
TTITLE7=Prince Of Players
TTITLE8=Is There A Chance
TTITLE9=Skyline Of Manhatten
TTITLE10=Down In My Heart
TTITLE11=I Don앖 Care
TTITLE12=Sandrine Rosemarie
TTITLE13=Joanne
TTITLE14=Wonderful Girl
TTITLE15=No One Really Knows
TTITLE16=Smoke Gets In Your Eyes
TTITLE17=Anna My Love
TTITLE18=Maureen
TTITLE19=Twinkle Lullabye
TTITLE20=There압 A Moon Out Tonight
TTITLE21=I Want A Little Girl
TTITLE22=New York압 Crying
TTITLE23=Can앖 Help Falling In Love
EXTD=YEAR: 2004
EXTT0=
EXTT1=
EXTT2=
EXTT3=
EXTT4=
EXTT5=
EXTT6=
EXTT7=
EXTT8=
EXTT9=
EXTT10=
EXTT11=
EXTT12=
EXTT13=
EXTT14=
EXTT15=
EXTT16=
EXTT17=
EXTT18=
EXTT19=
EXTT20=
EXTT21=
EXTT22=
EXTT23=
PLAYORDER=
